<!--
b - exchange balance, iqi
#pointer.cx = 30047 - b*3/500
#pointer.cy = b*3/500 - 29670
#price = 1 - b/5000000
#volume = (5000000 - b)/1000
-->
<svg xmlns="http://www.w3.org/2000/svg" viewBox="0 0 360 360" preserveAspectRatio="xMidYMid meet">
    <g stroke="#49BCE7" stroke-width="4" stroke-linecap="round">
        <line x1="47" y1="13" x2="47" y2="330" />
        <line x1="47" y1="330" x2="354" y2="330" />
        <line x1="47" y1="330" x2="347" y2="30" />
    </g>
    <g stroke="#49BCE7" stroke-width="2">
        <line x1="42" y1="30" x2="47" y2="30" />
        <line x1="42" y1="90" x2="47" y2="90" />
        <line x1="42" y1="150" x2="47" y2="150" />
        <line x1="42" y1="210" x2="47" y2="210" />
        <line x1="42" y1="270" x2="47" y2="270" />
        <line x1="42" y1="330" x2="47" y2="330" />
        <line x1="47" y1="330" x2="47" y2="335" />
        <line x1="107" y1="330" x2="107" y2="335" />
        <line x1="167" y1="330" x2="167" y2="335" />
        <line x1="227" y1="330" x2="227" y2="335" />
        <line x1="287" y1="330" x2="287" y2="335" />
        <line x1="347" y1="330" x2="347" y2="335" />
    </g>
    <g fill="#49BCE7" font-family="monospace" font-size="12">
        <text x="39" y="34" text-anchor="end">0.010</text>
        <text x="39" y="94" text-anchor="end">0.008</text>
        <text x="39" y="154" text-anchor="end">0.006</text>
        <text x="39" y="214" text-anchor="end">0.004</text>
        <text x="39" y="274" text-anchor="end">0.002</text>
        <text x="39" y="334" text-anchor="end">0</text>
        <text x="47" y="348" text-anchor="middle">0</text>
        <text x="107" y="348" text-anchor="middle">10</text>
        <text x="167" y="348" text-anchor="middle">20</text>
        <text x="227" y="348" text-anchor="middle">30</text>
        <text x="287" y="348" text-anchor="middle">40</text>
        <text x="347" y="348" text-anchor="middle">50</text>
    </g>
    <g fill="white" font-family="monospace">
        <text x="65" y="34" font-size="12" text-anchor="start">price, eth/iqi</text>
        <text id="price" x="65" y="66" font-size="20" text-anchor="start">...</text>
        <text x="347" y="280" font-size="12" text-anchor="end">volume, thousand iqi</text>
        <text id="volume" x="347" y="312" font-size="20" text-anchor="end">...</text>
    </g>
    <circle id="pointer" cx="-1000" cy="-1000" r="4" fill="black" stroke="white" stroke-width="4" />
</svg>