<!--
b - exchange balance, iqi
#pointer.cx = 340 - 3*b/50000
#pointer.cy = 30 + 3*b/50000
#price = 1 - b/5000000
#volume = (5000000 - b)/1000000
-->
<svg xmlns="http://www.w3.org/2000/svg" viewBox="0 0 360 360" preserveAspectRatio="xMidYMid meet">
    <g stroke="#49BCE7" stroke-width="4" stroke-linecap="round">
        <line x1="40" y1="13" x2="40" y2="330" />
        <line x1="40" y1="330" x2="347" y2="330" />
        <line x1="40" y1="330" x2="340" y2="30" />
    </g>
    <g stroke="#49BCE7" stroke-width="2">
        <line x1="35" y1="30" x2="40" y2="30" />
        <line x1="35" y1="90" x2="40" y2="90" />
        <line x1="35" y1="150" x2="40" y2="150" />
        <line x1="35" y1="210" x2="40" y2="210" />
        <line x1="35" y1="270" x2="40" y2="270" />
        <line x1="35" y1="330" x2="40" y2="330" />
        <line x1="40" y1="330" x2="40" y2="335" />
        <line x1="100" y1="330" x2="100" y2="335" />
        <line x1="160" y1="330" x2="160" y2="335" />
        <line x1="220" y1="330" x2="220" y2="335" />
        <line x1="280" y1="330" x2="280" y2="335" />
        <line x1="340" y1="330" x2="340" y2="335" />
    </g>
    <g fill="#49BCE7" font-family="monospace" font-size="12">
        <text x="32" y="34" text-anchor="end">1.0</text>
        <text x="32" y="94" text-anchor="end">0.8</text>
        <text x="32" y="154" text-anchor="end">0.6</text>
        <text x="32" y="214" text-anchor="end">0.4</text>
        <text x="32" y="274" text-anchor="end">0.2</text>
        <text x="32" y="334" text-anchor="end">0</text>
        <text x="40" y="348" text-anchor="middle">0</text>
        <text x="100" y="348" text-anchor="middle">1</text>
        <text x="160" y="348" text-anchor="middle">2</text>
        <text x="220" y="348" text-anchor="middle">3</text>
        <text x="280" y="348" text-anchor="middle">4</text>
        <text x="340" y="348" text-anchor="middle">5</text>
    </g>
    <g fill="white" font-family="monospace">
        <text x="58" y="34" font-size="12" text-anchor="start">price, eth/iqi</text>
        <text id="price" x="58" y="66" font-size="20" text-anchor="start">...</text>
        <text x="340" y="280" font-size="12" text-anchor="end">volume, million iqi</text>
        <text id="volume" x="340" y="312" font-size="20" text-anchor="end">...</text>
    </g>
    <circle id="pointer" cx="-1000" cy="-1000" r="4" fill="black" stroke="white" stroke-width="4" />
</svg>